<svg width="265" height="265" viewBox="0 0 265 265" fill="none" xmlns="http://www.w3.org/2000/svg">
<path d="M0 40C0 17.9086 17.9086 0 40 0H225C247.091 0 265 17.9086 265 40V225C265 247.091 247.091 265 225 265H40C17.9086 265 0 247.091 0 225V40Z" fill="#7F44B9"/>
<path d="M51.0909 176V82.9091H87.8182C94.8788 82.9091 100.894 84.2576 105.864 86.9545C110.833 89.6212 114.621 93.3333 117.227 98.0909C119.864 102.818 121.182 108.273 121.182 114.455C121.182 120.636 119.848 126.091 117.182 130.818C114.515 135.545 110.652 139.227 105.591 141.864C100.561 144.5 94.4697 145.818 87.3182 145.818H63.9091V130.045H84.1364C87.9242 130.045 91.0455 129.394 93.5 128.091C95.9849 126.758 97.8333 124.924 99.0455 122.591C100.288 120.227 100.909 117.515 100.909 114.455C100.909 111.364 100.288 108.667 99.0455 106.364C97.8333 104.03 95.9849 102.227 93.5 100.955C91.0152 99.6515 87.8636 99 84.0455 99H70.7727V176H51.0909ZM150.784 82.9091L173.284 153.636H174.148L196.693 82.9091H218.511L186.42 176H161.057L128.92 82.9091H150.784Z" fill="white"/>
</svg>
